<?xml version="1.0" encoding="UTF-8" standalone="no"?>
<!-- Created with Inkscape (http://www.inkscape.org/) -->

<svg
   width="18.25625mm"
   height="2.116667mm"
   viewBox="0 0 18.25625 2.116667"
   version="1.1"
   id="svg5"
   xmlns="http://www.w3.org/2000/svg"
   xmlns:svg="http://www.w3.org/2000/svg">
  <defs
     id="defs2" />
  <g
     id="layer1"
     transform="translate(-6.181153,-65.919759)">
    <path
       d="m 24.17282,68.036426 c -0.762,0 -1.140355,-0.473604 -1.47373,-0.894292 -0.333375,-0.420687 -0.552979,-0.693208 -1.060979,-0.693208 -0.508,0 -0.748771,0.306917 -1.058333,0.693208 -0.309563,0.386292 -0.714375,0.894292 -1.473729,0.894292 -0.759354,0 -1.140354,-0.473604 -1.473729,-0.894292 -0.333375,-0.420687 -0.55298,-0.693208 -1.058334,-0.693208 -0.505354,0 -0.751416,0.306917 -1.058333,0.693208 -0.306917,0.386292 -0.714375,0.894292 -1.476375,0.894292 -0.762,0 -1.137708,-0.473604 -1.471083,-0.894292 -0.333375,-0.420687 -0.566209,-0.693208 -1.060979,-0.693208 -0.494771,0 -0.748771,0.306917 -1.058334,0.693208 -0.309562,0.386292 -0.7117288,0.894292 -1.471083,0.894292 -0.7593541,0 -1.1403541,-0.473604 -1.4737291,-0.894292 C 7.1706948,66.721447 6.9510907,66.448926 6.4457365,66.448926 a 0.2645835,0.2645835 0 0 1 0,-0.529167 c 0.7593542,0 1.1377084,0.473605 1.4737292,0.894292 0.3360208,0.420688 0.5529792,0.693208 1.0583333,0.693208 0.5053542,0 0.7487709,-0.306916 1.058333,-0.693208 0.309563,-0.386292 0.711729,-0.894292 1.471084,-0.894292 0.759354,0 1.140354,0.473605 1.473729,0.894292 0.333375,0.420688 0.552979,0.693208 1.058333,0.693208 0.505354,0 0.751417,-0.306916 1.058333,-0.693208 0.306917,-0.386292 0.714375,-0.894292 1.476375,-0.894292 0.762,0 1.137709,0.473605 1.471084,0.894292 0.333375,0.420688 0.555625,0.693208 1.060979,0.693208 0.505354,0 0.748771,-0.306916 1.058333,-0.693208 0.309563,-0.386292 0.714375,-0.894292 1.473729,-0.894292 0.759354,0 1.140354,0.473605 1.476375,0.894292 0.336021,0.420688 0.552979,0.693208 1.058334,0.693208 a 0.2645835,0.2645835 0 0 1 0,0.529167 z"
       id="path11"
       style="stroke-width:0.264583" />
  </g>
</svg>
